{
    "asset": {
        "version": "2.0",
        "generator": "Open Asset Import Library (assimp v5.2.47303c2d)"
    },
    "extensionsUsed": [
        "KHR_materials_pbrSpecularGlossiness",
        "FB_ngon_encoding"
    ],
    "accessors": [
        {
            "bufferView": 0,
            "byteOffset": 0,
            "componentType": 5126,
            "count": 233537,
            "type": "VEC3",
            "max": [
                0.15632399916648866,
                0.05075198411941528,
                0.12063950300216675
            ],
            "min": [
                -0.15632399916648866,
                0.0,
                -0.12063950300216675
            ]
        },
        {
            "bufferView": 1,
            "byteOffset": 0,
            "componentType": 5126,
            "count": 233537,
            "type": "VEC3",
            "max": [
                0.999984860420227,
                0.9999997615814209,
                0.9999468922615051
            ],
            "min": [
                -0.9999991059303284,
                -0.9991212487220764,
                -0.999939501285553
            ]
        },
        {
            "bufferView": 2,
            "byteOffset": 0,
            "componentType": 5126,
            "count": 233537,
            "type": "VEC2",
            "max": [
                0.9918469786643982,
                0.818073034286499
            ],
            "min": [
                0.007938999682664872,
                0.007983028888702393
            ]
        },
        {
            "bufferView": 3,
            "byteOffset": 0,
            "componentType": 5125,
            "count": 1272966,
            "type": "SCALAR",
            "max": [
                233536
            ],
            "min": [
                0
            ]
        }
    ],
    "buffers": [
        {
            "byteLength": 12565048,
            "uri": "Np1jeHurfUAWo5fS4RPY.bin"
        }
    ],
    "bufferViews": [
        {
            "buffer": 0,
            "byteOffset": 0,
            "byteLength": 2802444,
            "target": 34962
        },
        {
            "buffer": 0,
            "byteOffset": 2802444,
            "byteLength": 2802444,
            "target": 34962
        },
        {
            "buffer": 0,
            "byteOffset": 5604888,
            "byteLength": 1868296,
            "target": 34962
        },
        {
            "buffer": 0,
            "byteOffset": 7473184,
            "byteLength": 5091864,
            "target": 34963
        }
    ],
    "images": [
        {
            "uri": "data:image/jpeg;base64,"
        }
    ],
    "materials": [
        {
            "name": "DefaultMaterial",
            "pbrMetallicRoughness": {
                "baseColorFactor": [
                    0.6000000238418579,
                    0.6000000238418579,
                    0.6000000238418579,
                    1.0
                ],
                "metallicFactor": 0.0
            },
            "extensions": {
                "KHR_materials_pbrSpecularGlossiness": {
                    "diffuseFactor": [
                        0.6000000238418579,
                        0.6000000238418579,
                        0.6000000238418579,
                        1.0
                    ],
                    "specularFactor": [
                        0.0,
                        0.0,
                        0.0
                    ],
                    "glossinessFactor": 0.0
                }
            }
        },
        {
            "name": "material0000",
            "pbrMetallicRoughness": {
                "baseColorTexture": {
                    "index": 0
                },
                "metallicFactor": 0.0
            },
            "extensions": {
                "KHR_materials_pbrSpecularGlossiness": {
                    "specularFactor": [
                        0.0,
                        0.0,
                        0.0
                    ],
                    "glossinessFactor": 0.0010000000474974514,
                    "diffuseTexture": {
                        "index": 0
                    }
                }
            }
        }
    ],
    "meshes": [
        {
            "name": "defaultobject",
            "primitives": [
                {
                    "mode": 4,
                    "material": 1,
                    "indices": 3,
                    "attributes": {
                        "POSITION": 0,
                        "NORMAL": 1,
                        "TEXCOORD_0": 2
                    }
                }
            ]
        }
    ],
    "nodes": [
        {
            "name": "model.obj",
            "children": [
                1
            ]
        },
        {
            "name": "defaultobject",
            "mesh": 0
        }
    ],
    "samplers": [
        {}
    ],
    "scenes": [
        {
            "nodes": [
                0
            ]
        }
    ],
    "textures": [
        {
            "source": 0,
            "sampler": 0
        }
    ],
    "scene": 0
}