{
    "asset": {
        "version": "2.0",
        "generator": "Open Asset Import Library (assimp v5.2.47303c2d)"
    },
    "extensionsUsed": [
        "KHR_materials_pbrSpecularGlossiness",
        "FB_ngon_encoding"
    ],
    "accessors": [
        {
            "bufferView": 0,
            "byteOffset": 0,
            "componentType": 5126,
            "count": 220218,
            "type": "VEC3",
            "max": [
                0.6041535139083862,
                1.2414380311965943,
                0.5088319778442383
            ],
            "min": [
                -0.6041685342788696,
                0.014351963996887207,
                -0.5088319778442383
            ]
        },
        {
            "bufferView": 1,
            "byteOffset": 0,
            "componentType": 5126,
            "count": 220218,
            "type": "VEC3",
            "max": [
                0.9998931288719177,
                0.9999998807907105,
                0.9999798536300659
            ],
            "min": [
                -0.9999746680259705,
                -0.999995231628418,
                -0.9999988675117493
            ]
        },
        {
            "bufferView": 2,
            "byteOffset": 0,
            "componentType": 5126,
            "count": 220218,
            "type": "VEC2",
            "max": [
                0.9920650124549866,
                0.9919250011444092
            ],
            "min": [
                0.007945000194013119,
                0.007947981357574463
            ]
        },
        {
            "bufferView": 3,
            "byteOffset": 0,
            "componentType": 5125,
            "count": 1204977,
            "type": "SCALAR",
            "max": [
                220217
            ],
            "min": [
                0
            ]
        },
        {
            "bufferView": 4,
            "byteOffset": 0,
            "componentType": 5126,
            "count": 61951,
            "type": "VEC3",
            "max": [
                0.6041685342788696,
                1.2423970699310303,
                0.5070180296897888
            ],
            "min": [
                -0.6033405065536499,
                0.0,
                -0.5086179971694946
            ]
        },
        {
            "bufferView": 5,
            "byteOffset": 0,
            "componentType": 5126,
            "count": 61951,
            "type": "VEC3",
            "max": [
                0.9999944567680359,
                0.9999966621398926,
                0.9999827742576599
            ],
            "min": [
                -0.999988853931427,
                -0.9999882578849793,
                -0.9999517798423767
            ]
        },
        {
            "bufferView": 6,
            "byteOffset": 0,
            "componentType": 5126,
            "count": 61951,
            "type": "VEC2",
            "max": [
                0.9920650124549866,
                0.625298023223877
            ],
            "min": [
                0.007935999892652035,
                0.007934987545013428
            ]
        },
        {
            "bufferView": 7,
            "byteOffset": 0,
            "componentType": 5125,
            "count": 295020,
            "type": "SCALAR",
            "max": [
                61950
            ],
            "min": [
                0
            ]
        }
    ],
    "buffers": [
        {
            "byteLength": 15029396,
            "uri": "hRMuE837TdbHiJSPRDZR.bin"
        }
    ],
    "bufferViews": [
        {
            "buffer": 0,
            "byteOffset": 0,
            "byteLength": 2642616,
            "target": 34962
        },
        {
            "buffer": 0,
            "byteOffset": 2642616,
            "byteLength": 2642616,
            "target": 34962
        },
        {
            "buffer": 0,
            "byteOffset": 5285232,
            "byteLength": 1761744,
            "target": 34962
        },
        {
            "buffer": 0,
            "byteOffset": 7046976,
            "byteLength": 4819908,
            "target": 34963
        },
        {
            "buffer": 0,
            "byteOffset": 11866884,
            "byteLength": 743412,
            "target": 34962
        },
        {
            "buffer": 0,
            "byteOffset": 12610296,
            "byteLength": 743412,
            "target": 34962
        },
        {
            "buffer": 0,
            "byteOffset": 13353708,
            "byteLength": 495608,
            "target": 34962
        },
        {
            "buffer": 0,
            "byteOffset": 13849316,
            "byteLength": 1180080,
            "target": 34963
        }
    ],
    "images": [
        {
            "uri": "data:image/jpeg;base64,"
        },
        {
            "uri": "data:image/jpeg;base64,"
        }
    ],
    "materials": [
        {
            "name": "DefaultMaterial",
            "pbrMetallicRoughness": {
                "baseColorFactor": [
                    0.6000000238418579,
                    0.6000000238418579,
                    0.6000000238418579,
                    1.0
                ],
                "metallicFactor": 0.0
            },
            "extensions": {
                "KHR_materials_pbrSpecularGlossiness": {
                    "diffuseFactor": [
                        0.6000000238418579,
                        0.6000000238418579,
                        0.6000000238418579,
                        1.0
                    ],
                    "specularFactor": [
                        0.0,
                        0.0,
                        0.0
                    ],
                    "glossinessFactor": 0.0
                }
            }
        },
        {
            "name": "material0000",
            "pbrMetallicRoughness": {
                "baseColorTexture": {
                    "index": 0
                },
                "metallicFactor": 0.0
            },
            "extensions": {
                "KHR_materials_pbrSpecularGlossiness": {
                    "specularFactor": [
                        0.0,
                        0.0,
                        0.0
                    ],
                    "glossinessFactor": 0.0010000000474974514,
                    "diffuseTexture": {
                        "index": 0
                    }
                }
            }
        },
        {
            "name": "material0001",
            "pbrMetallicRoughness": {
                "baseColorTexture": {
                    "index": 1
                },
                "metallicFactor": 0.0
            },
            "extensions": {
                "KHR_materials_pbrSpecularGlossiness": {
                    "specularFactor": [
                        0.0,
                        0.0,
                        0.0
                    ],
                    "glossinessFactor": 0.0010000000474974514,
                    "diffuseTexture": {
                        "index": 1
                    }
                }
            }
        }
    ],
    "meshes": [
        {
            "name": "defaultobject",
            "primitives": [
                {
                    "mode": 4,
                    "material": 1,
                    "indices": 3,
                    "attributes": {
                        "POSITION": 0,
                        "NORMAL": 1,
                        "TEXCOORD_0": 2
                    }
                },
                {
                    "mode": 4,
                    "material": 2,
                    "indices": 7,
                    "attributes": {
                        "POSITION": 4,
                        "NORMAL": 5,
                        "TEXCOORD_0": 6
                    }
                }
            ]
        }
    ],
    "nodes": [
        {
            "name": "model.obj",
            "children": [
                1
            ]
        },
        {
            "name": "defaultobject",
            "mesh": 0
        }
    ],
    "samplers": [
        {},
        {}
    ],
    "scenes": [
        {
            "nodes": [
                0
            ]
        }
    ],
    "textures": [
        {
            "source": 0,
            "sampler": 0
        },
        {
            "source": 1,
            "sampler": 1
        }
    ],
    "scene": 0
}