{
    "asset": {
        "version": "2.0",
        "generator": "Open Asset Import Library (assimp v5.2.47303c2d)"
    },
    "extensionsUsed": [
        "KHR_materials_pbrSpecularGlossiness",
        "FB_ngon_encoding"
    ],
    "accessors": [
        {
            "bufferView": 0,
            "byteOffset": 0,
            "componentType": 5126,
            "count": 395875,
            "type": "VEC3",
            "max": [
                0.165181502699852,
                0.11183100938796997,
                0.25800150632858279
            ],
            "min": [
                -0.1651814877986908,
                0.0,
                -0.25800150632858279
            ]
        },
        {
            "bufferView": 1,
            "byteOffset": 0,
            "componentType": 5126,
            "count": 395875,
            "type": "VEC3",
            "max": [
                0.9999987483024597,
                1.0,
                0.9999986290931702
            ],
            "min": [
                -0.9999956488609314,
                -0.9999907612800598,
                -0.9999993443489075
            ]
        },
        {
            "bufferView": 2,
            "byteOffset": 0,
            "componentType": 5126,
            "count": 395875,
            "type": "VEC2",
            "max": [
                0.9919260144233704,
                0.9917969703674316
            ],
            "min": [
                0.007934999652206898,
                0.007938981056213379
            ]
        },
        {
            "bufferView": 3,
            "byteOffset": 0,
            "componentType": 5125,
            "count": 2177925,
            "type": "SCALAR",
            "max": [
                395874
            ],
            "min": [
                0
            ]
        },
        {
            "bufferView": 4,
            "byteOffset": 0,
            "componentType": 5126,
            "count": 15637,
            "type": "VEC3",
            "max": [
                0.1081085056066513,
                0.11170801520347595,
                0.2553485035896301
            ],
            "min": [
                -0.1498354971408844,
                0.0007980167865753174,
                -0.22361749410629273
            ]
        },
        {
            "bufferView": 5,
            "byteOffset": 0,
            "componentType": 5126,
            "count": 15637,
            "type": "VEC3",
            "max": [
                0.999995768070221,
                0.9999979734420776,
                0.9999473690986633
            ],
            "min": [
                -0.9999656677246094,
                -0.9999771118164063,
                -0.9999977350234985
            ]
        },
        {
            "bufferView": 6,
            "byteOffset": 0,
            "componentType": 5126,
            "count": 15637,
            "type": "VEC2",
            "max": [
                0.9912109971046448,
                0.7811579704284668
            ],
            "min": [
                0.008303999900817871,
                0.008327007293701172
            ]
        },
        {
            "bufferView": 7,
            "byteOffset": 0,
            "componentType": 5125,
            "count": 55902,
            "type": "SCALAR",
            "max": [
                15636
            ],
            "min": [
                0
            ]
        }
    ],
    "buffers": [
        {
            "byteLength": 22103692,
            "uri": "lk5vUtoDtEiMyfmlIADJ.bin"
        }
    ],
    "bufferViews": [
        {
            "buffer": 0,
            "byteOffset": 0,
            "byteLength": 4750500,
            "target": 34962
        },
        {
            "buffer": 0,
            "byteOffset": 4750500,
            "byteLength": 4750500,
            "target": 34962
        },
        {
            "buffer": 0,
            "byteOffset": 9501000,
            "byteLength": 3167000,
            "target": 34962
        },
        {
            "buffer": 0,
            "byteOffset": 12668000,
            "byteLength": 8711700,
            "target": 34963
        },
        {
            "buffer": 0,
            "byteOffset": 21379700,
            "byteLength": 187644,
            "target": 34962
        },
        {
            "buffer": 0,
            "byteOffset": 21567344,
            "byteLength": 187644,
            "target": 34962
        },
        {
            "buffer": 0,
            "byteOffset": 21754988,
            "byteLength": 125096,
            "target": 34962
        },
        {
            "buffer": 0,
            "byteOffset": 21880084,
            "byteLength": 223608,
            "target": 34963
        }
    ],
    "images": [
        {
            "uri": "data:image/jpeg;base64,"
        },
        {
            "uri": "data:image/jpeg;base64,"
        }
    ],
    "materials": [
        {
            "name": "DefaultMaterial",
            "pbrMetallicRoughness": {
                "baseColorFactor": [
                    0.6000000238418579,
                    0.6000000238418579,
                    0.6000000238418579,
                    1.0
                ],
                "metallicFactor": 0.0
            },
            "extensions": {
                "KHR_materials_pbrSpecularGlossiness": {
                    "diffuseFactor": [
                        0.6000000238418579,
                        0.6000000238418579,
                        0.6000000238418579,
                        1.0
                    ],
                    "specularFactor": [
                        0.0,
                        0.0,
                        0.0
                    ],
                    "glossinessFactor": 0.0
                }
            }
        },
        {
            "name": "material0000",
            "pbrMetallicRoughness": {
                "baseColorTexture": {
                    "index": 0
                },
                "metallicFactor": 0.0
            },
            "extensions": {
                "KHR_materials_pbrSpecularGlossiness": {
                    "specularFactor": [
                        0.0,
                        0.0,
                        0.0
                    ],
                    "glossinessFactor": 0.0010000000474974514,
                    "diffuseTexture": {
                        "index": 0
                    }
                }
            }
        },
        {
            "name": "material0001",
            "pbrMetallicRoughness": {
                "baseColorTexture": {
                    "index": 1
                },
                "metallicFactor": 0.0
            },
            "extensions": {
                "KHR_materials_pbrSpecularGlossiness": {
                    "specularFactor": [
                        0.0,
                        0.0,
                        0.0
                    ],
                    "glossinessFactor": 0.0010000000474974514,
                    "diffuseTexture": {
                        "index": 1
                    }
                }
            }
        }
    ],
    "meshes": [
        {
            "name": "defaultobject",
            "primitives": [
                {
                    "mode": 4,
                    "material": 1,
                    "indices": 3,
                    "attributes": {
                        "POSITION": 0,
                        "NORMAL": 1,
                        "TEXCOORD_0": 2
                    }
                },
                {
                    "mode": 4,
                    "material": 2,
                    "indices": 7,
                    "attributes": {
                        "POSITION": 4,
                        "NORMAL": 5,
                        "TEXCOORD_0": 6
                    }
                }
            ]
        }
    ],
    "nodes": [
        {
            "name": "model.obj",
            "children": [
                1
            ]
        },
        {
            "name": "defaultobject",
            "mesh": 0
        }
    ],
    "samplers": [
        {},
        {}
    ],
    "scenes": [
        {
            "nodes": [
                0
            ]
        }
    ],
    "textures": [
        {
            "source": 0,
            "sampler": 0
        },
        {
            "source": 1,
            "sampler": 1
        }
    ],
    "scene": 0
}